PathFileType	4	(X/Y/Z)	/Users/itak/Documents/Research/Walk-IL/dataset/trc/00418_00012.trc
DataRate	CameraRate	NumFrames	NumMarkers	Units	OrigDataRate	OrigDataStartFrame	OrigNumFrames
100.000000	100.000000	4	54	mm	100.000000	221	355
Frame#	Time	RPSI			LPSI			L3			STRN			T10			C7			CLAV			RBAK			LBAK			LSHO			LUPA			LAEL			LAOL			LWTS			LWPS			LFRA			LHPS			LHTS			RSHO			RUPA			RAEL			RAOL			RWTS			RWPS			RFRA			RIFD			RHPS			RBHD			LFHD			RFHD			LBHD			LHIP			RHIP			RASI			LASI			LKNE			LTHI			LANK			LTIP			LTOE			LMT1			LMT5			LHEE			RKNE			RTHI			RANK			RTIP			RTOE			RMT1			RMT5			RHEE			RHTS			LIFD			*53			
		X1	Y1	Z1	X2	Y2	Z2	X3	Y3	Z3	X4	Y4	Z4	X5	Y5	Z5	X6	Y6	Z6	X7	Y7	Z7	X8	Y8	Z8	X9	Y9	Z9	X10	Y10	Z10	X11	Y11	Z11	X12	Y12	Z12	X13	Y13	Z13	X14	Y14	Z14	X15	Y15	Z15	X16	Y16	Z16	X17	Y17	Z17	X18	Y18	Z18	X19	Y19	Z19	X20	Y20	Z20	X21	Y21	Z21	X22	Y22	Z22	X23	Y23	Z23	X24	Y24	Z24	X25	Y25	Z25	X26	Y26	Z26	X27	Y27	Z27	X28	Y28	Z28	X29	Y29	Z29	X30	Y30	Z30	X31	Y31	Z31	X32	Y32	Z32	X33	Y33	Z33	X34	Y34	Z34	X35	Y35	Z35	X36	Y36	Z36	X37	Y37	Z37	X38	Y38	Z38	X39	Y39	Z39	X40	Y40	Z40	X41	Y41	Z41	X42	Y42	Z42	X43	Y43	Z43	X44	Y44	Z44	X45	Y45	Z45	X46	Y46	Z46	X47	Y47	Z47	X48	Y48	Z48	X49	Y49	Z49	X50	Y50	Z50	X51	Y51	Z51	X52	Y52	Z52	X53	Y53	Z53	X54	Y54	Z54	

222	2.21	139.2767944335938	950.9013061523438	-117.4829788208008	269.6737060546875	933.3289184570312	-137.0378265380859	196.6957244873047	1023.467834472656	-132.4167633056641	224.7436370849609	1185.47119140625	105.0991516113281	194.7408142089844	1127.790283203125	-148.3763275146484	197.6313934326172	1376.373657226562	-108.1685104370117	215.5015106201172	1301.979248046875	47.37711715698242	127.3058700561523	1230.571044921875	-143.5434875488281	295.7022705078125	1342.37939453125	-138.6747894287109	360.0006408691406	1356.218017578125	-62.03093338012695	414.9707336425781	1245.894287109375	-119.5090637207031	421.0474548339844	1051.022338867188	-155.6259460449219	342.34130859375	1043.950805664062	-188.8583221435547	388.2872009277344	815.8307495117188	-115.8531341552734	430.7332763671875	818.9867553710938	-186.5410003662109	426.5725708007812	945.8021240234375	-171.2566070556641	415.2897338867188	733.2562255859375	-197.4743347167969	398.5325317382812	718.098388671875	-137.324462890625	50.67505264282227	1357.036499023438	-33.41725158691406	-10.3695011138916	1293.644409179688	-42.08364868164062	-62.72436904907227	1032.88916015625	-26.79060554504395	27.18179130554199	1014.690979003906	-51.95644760131836	-8.756909370422363	941.2102661132812	193.9130401611328	-70.5887451171875	902.3279418945312	177.1770477294922	-72.36280059814453	989.5032958984375	25.51624870300293	-3.034354448318481	818.7357788085938	318.7591552734375	-63.17777633666992	843.3820190429688	240.6200714111328	107.3435440063477	1560.521118164062	-38.84230804443359	284.8166198730469	1574.647338867188	43.859619140625	169.4505615234375	1575.228393554688	79.16229248046875	253.4925079345703	1556.8759765625	-100.7889404296875	390.3074340820312	928.9967651367188	-61.06377792358398	35.52471923828125	934.3350830078125	-21.15067481994629	102.2067565917969	943.6624755859375	105.7818222045898	361.0531005859375	939.124267578125	57.67120361328125	427.8341674804688	492.9941711425781	172.5652160644531	420.4147644042969	612.5370483398438	103.0146255493164	452.8535766601562	36.84130859375	209.4688873291016	456.705322265625	257.6807861328125	187.1574554443359	436.1451416015625	97.60165405273438	416.9585876464844	388.9873352050781	73.60258483886719	354.2169494628906	491.7661437988281	65.12184143066406	326.7786254882812	390.1198120117188	26.2977180480957	186.2132415771484	118.4044570922852	444.5660705566406	-15.97577095031738	68.10860443115234	700.3179931640625	48.8554801940918	164.1353149414062	50.04605102539062	-159.2747802734375	150.90087890625	318.84130859375	-36.0318489074707	294.7669372558594	33.43395614624023	-23.33201789855957	289.0530395507812	38.51583099365234	-106.5304794311523	192.1587371826172	41.87804412841797	-81.73405456542969	180.4812316894531	46.54803848266602	-249.523193359375	-18.62957382202148	879.220703125	280.8479614257812	367.8605651855469	645.94140625	-175.1975708007812	nan	nan	nan	
223	2.22	144.6729736328125	948.8760375976562	-109.2972259521484	275.3407592773438	931.0315551757812	-127.242805480957	202.2608184814453	1021.379638671875	-124.0239486694336	228.0502319335938	1183.808227539062	113.7749481201172	200.401123046875	1125.763061523438	-139.981689453125	202.5246887207031	1374.336181640625	-100.0471649169922	219.2246704101562	1300.114624023438	55.68896865844727	132.5351104736328	1228.618041992188	-136.0716094970703	300.7741088867188	1340.241577148438	-129.8196411132812	364.5764770507812	1354.164428710938	-52.78459548950195	419.5661010742188	1243.768188476562	-110.0509185791016	425.1556091308594	1048.909301757812	-146.4563598632812	346.5738220214844	1042.135498046875	-180.0042572021484	390.6956176757812	813.5704956054688	-108.1485900878906	433.9402770996094	816.95654296875	-178.3793029785156	430.31298828125	943.7241821289062	-162.4467163085938	417.7212829589844	731.4110717773438	-190.2291870117188	400.1622619628906	715.883056640625	-130.4149627685547	54.91892623901367	1355.065673828125	-26.40242767333984	-6.005353927612305	1291.46337890625	-35.41393661499023	-57.88960266113281	1030.589721679688	-19.59289169311523	32.27413940429688	1012.312133789062	-43.84983444213867	-5.74400806427002	941.4595336914062	202.3983917236328	-67.39608001708984	902.4187622070312	185.6569213867188	-67.86998748779297	987.7410888671875	32.9693717956543	-1.226066112518311	820.4238891601562	328.719482421875	-60.99027633666992	844.2715454101562	249.6773529052734	111.8833847045898	1558.688110351562	-30.89565277099609	289.242919921875	1572.737060546875	52.03566741943359	173.8610382080078	1573.460693359375	87.16763305664062	258.078125	1554.884033203125	-92.63747406005859	394.8832092285156	926.6870727539062	-49.73593139648438	38.60731887817383	932.7927856445312	-14.6537504196167	104.8580474853516	942.2721557617188	113.4921493530273	364.5430908203125	937.422119140625	68.72174835205078	430.5071716308594	489.9974365234375	182.1049194335938	423.3584594726562	610.1646118164062	112.6746673583984	454.6786499023438	35.78084945678711	238.8639831542969	458.7005920410156	255.7257385253906	206.6376342773438	432.8698120117188	104.4893035888672	443.3359069824219	387.2341613769531	78.39771270751953	380.3655700683594	490.7049865722656	68.36650085449219	355.989501953125	392.7364501953125	24.46630668640137	214.2752685546875	121.3027114868164	443.3863220214844	-10.54417324066162	70.76016998291016	698.9033203125	55.08176803588867	164.8028106689453	50.64174652099609	-159.6649322509766	153.1996459960938	317.5299987792969	-31.95954704284668	294.6387634277344	33.35571670532227	-22.93318367004395	289.4309387207031	38.54176712036133	-106.1542892456055	192.52880859375	42.08665466308594	-81.89321136474609	181.7863311767578	47.800537109375	-249.8395538330078	-16.40916633605957	880.4923095703125	289.9911499023438	368.8160705566406	644.4081420898438	-169.2898712158203	nan	nan	nan	
224	2.23	150.0131072998047	946.8682250976562	-100.8997650146484	280.9263610839844	928.789306640625	-117.3110733032227	207.7480621337891	1019.276000976562	-115.4520645141602	231.3402862548828	1182.178466796875	122.5172729492188	205.9291839599609	1123.7041015625	-131.3318786621094	207.3505249023438	1372.288818359375	-91.88128662109375	222.922607421875	1298.269287109375	64.06551361083984	137.7335662841797	1226.622436523438	-128.4248657226562	305.7684936523438	1338.060546875	-120.951530456543	369.1026611328125	1352.090209960938	-43.53746795654297	424.1476135253906	1241.574462890625	-100.4945068359375	429.3930969238281	1046.703979492188	-136.9646148681641	350.9384155273438	1040.146240234375	-170.8751678466797	393.3206787109375	811.27197265625	-99.92621612548828	437.4346313476562	814.8275146484375	-169.6465606689453	434.2323303222656	941.5443115234375	-153.2083740234375	420.4739074707031	729.453369140625	-182.3666534423828	402.0303344726562	713.598876953125	-122.9333038330078	59.13732147216797	1353.098022460938	-19.28313636779785	-1.634223103523254	1289.28271484375	-28.6126708984375	-52.95198059082031	1028.28662109375	-12.38639736175537	37.5306396484375	1009.976318359375	-35.6536979675293	-2.72526216506958	941.111328125	210.7207489013672	-64.19572448730469	902.0091552734375	193.8343811035156	-63.2811393737793	985.8284301757812	40.38566970825195	0.4137462973594666	821.1234741210938	338.1089172363281	-58.81767272949219	844.4560546875	258.2580871582031	116.3565139770508	1556.8525390625	-22.94760894775391	293.6237182617188	1570.853881835938	60.20722961425781	178.2231597900391	1571.725830078125	95.18050384521484	262.6234741210938	1552.898803710938	-84.48683166503906	399.420166015625	924.44921875	-38.33391189575195	41.7958984375	931.216552734375	-7.882609367370605	107.5456771850586	940.8563842773438	121.4300384521484	367.9961547851562	935.7393188476562	79.83757019042969	433.2005004882812	487.0309143066406	191.6520233154297	426.3761291503906	607.8065185546875	122.3892211914062	455.7608947753906	35.15944671630859	266.1752319335938	460.3199462890625	254.0219879150391	225.1169586181641	428.9788818359375	111.2746658325195	467.4539489746094	384.8681945800781	83.15332794189453	404.2875061035156	488.9320678710938	71.80291748046875	382.9909973144531	394.6600341796875	23.04508018493652	240.2487335205078	124.2288055419922	442.18701171875	-4.945140838623047	73.46340942382812	697.4525146484375	61.50760269165039	165.3895721435547	51.41038513183594	-160.0688171386719	155.4427490234375	316.2301330566406	-27.77209663391113	294.49365234375	33.28776931762695	-22.54695510864258	289.8003540039062	38.66466903686523	-105.7308349609375	192.8741607666016	42.32339859008789	-82.0535888671875	183.1776275634766	49.30862808227539	-250.1172943115234	-14.2618522644043	880.8980712890625	298.7561340332031	370.0836791992188	642.7808837890625	-162.7740325927734	nan	nan	nan	
225	2.24	155.3127746582031	944.9244384765625	-92.28330993652344	286.4306335449219	926.6646728515625	-107.215202331543	213.1676635742188	1017.191223144531	-106.6464385986328	234.6007385253906	1180.602416992188	131.3293151855469	211.3005065917969	1121.634033203125	-122.4570846557617	212.1071624755859	1370.255126953125	-83.66561889648438	226.5931701660156	1296.474243164062	72.51642608642578	142.8841705322266	1224.603637695312	-120.5928726196289	310.6844177246094	1335.858642578125	-112.0655288696289	373.5750732421875	1350.020263671875	-34.28606796264648	428.7102966308594	1239.341552734375	-90.83802032470703	433.7473754882812	1044.434448242188	-127.1583786010742	355.4305114746094	1038.0146484375	-161.4793701171875	396.1554260253906	808.9532470703125	-91.18644714355469	441.212158203125	812.6213989257812	-160.3341522216797	438.3211364746094	939.2886962890625	-143.5471649169922	423.5758056640625	727.3992309570312	-173.8619995117188	404.2057800292969	711.2745361328125	-114.8352737426758	63.33097076416016	1351.156494140625	-12.05110359191895	2.738303184509277	1287.129760742188	-21.67285346984863	-47.92190933227539	1026.00927734375	-5.191242218017578	42.93639373779297	1007.718444824219	-27.37616348266602	0.3046796023845673	940.1921997070312	218.8854217529297	-61.00984191894531	901.12353515625	201.6999816894531	-58.61779403686523	983.7948608398438	47.75517654418945	1.925178170204163	820.8469848632812	346.9384155273438	-56.6038932800293	843.9487915039062	266.3841857910156	120.7648620605469	1555.0458984375	-14.99776649475098	297.9656982421875	1569.02294921875	68.36925506591797	182.533203125	1570.049072265625	103.2018585205078	267.130126953125	1550.940185546875	-76.34088134765625	403.9483337402344	922.3424682617188	-26.85165214538574	45.2352294921875	929.6256103515625	-0.7923900485038757	110.2686614990234	939.42431640625	129.6019897460938	371.4096984863281	934.1004638671875	91.02009582519531	435.8479919433594	484.1810913085938	201.3438262939453	429.4325866699219	605.5121459960938	132.2565307617188	456.1427917480469	34.77942276000977	291.1550903320312	461.5880432128906	252.5120086669922	242.5536041259766	424.5921020507812	117.5526885986328	489.2232360839844	381.9855041503906	87.55367279052734	425.8528747558594	486.5344848632812	75.08095550537109	407.6028442382812	395.9019775390625	21.92274475097656	263.9010620117188	127.2095794677734	440.9753112792969	0.8655952215194702	76.24794769287109	695.98876953125	68.15987396240234	165.9188537597656	52.35503768920898	-160.4297790527344	157.6154174804688	314.9681396484375	-23.4330940246582	294.3411560058594	33.22902297973633	-22.17836380004883	290.1366577148438	38.89387130737305	-105.2673645019531	193.1744079589844	42.58001708984375	-82.18232727050781	184.60546875	51.11331939697266	-250.3188018798828	-12.17085552215576	880.45068359375	307.153076171875	371.7576599121094	641.0654907226562	-155.5928039550781	nan	nan	nan	
